<svg width="58" height="24" viewBox="0 0 58 24" fill="none" xmlns="http://www.w3.org/2000/svg">
<path d="M22.8044 16.4084C23.348 16.7347 23.9217 16.6255 24.4948 16.5245C24.0343 16.748 23.5657 16.8357 23.0768 16.6156C22.9757 16.5674 22.8944 16.478 22.8044 16.4084Z" fill="#2EB5C4"/>
<path d="M31.6942 7.65543L31.2192 8.27728L31.1123 8.21922L31.4503 7.47022C31.4125 7.62408 31.3754 7.77737 31.3342 7.95039L31.6942 7.65543Z" fill="#2EB5C4"/>
<path d="M50.4347 9.63537C50.5091 9.51382 50.5836 9.39265 50.6583 9.27188C50.6583 9.38801 50.6583 9.50124 50.6583 9.6162L50.458 10.0064L50.3929 9.97909L50.419 9.79793C50.4243 9.74335 50.4295 9.68937 50.4347 9.63537Z" fill="#2EB5C4"/>
<path d="M17.4714 7.40111C16.7537 4.44457 14.9884 2.3218 12.2034 1.07984C10.5275 0.332576 8.73436 0.100907 6.91913 0.0202002C5.36309 -0.0404979 3.80472 0.0356589 2.26201 0.247801C1.60119 0.334894 0.944431 0.45045 0.287673 0.564253C-0.00267059 0.614767 -0.0566709 0.718686 0.0519178 0.986935C0.32368 1.65814 0.618085 2.32237 0.868943 2.99996C0.972305 3.27924 1.18716 3.39827 1.5077 3.36982C1.98793 3.32744 2.46525 3.24906 2.94432 3.18809C4.63935 2.97268 6.33379 2.74912 8.03056 2.54532C9.63854 2.34844 11.2701 2.50095 12.8137 2.99242C14.2985 3.46214 15.3629 4.35805 15.7462 5.91703C16.0731 7.2484 16.0638 8.58499 15.6039 9.88501C14.7729 12.2348 13.1366 13.8669 10.9189 14.9277C9.17278 15.7627 7.30006 16.0751 5.37682 16.1192C4.93898 16.1296 4.91227 16.0861 5.01506 15.6622C5.43664 13.9204 5.85996 12.1785 6.26934 10.4296C6.4691 9.57669 6.62995 8.71506 6.8239 7.86096C7.02366 6.98306 7.23038 6.10632 7.45801 5.23596C7.52943 4.96539 7.42607 4.93751 7.2118 4.93867C6.63111 4.94274 6.05042 4.93867 5.46973 4.93867C4.93027 4.93867 4.81414 5.02633 4.6858 5.54773C4.53134 6.17539 4.38384 6.8048 4.23403 7.43303C3.83529 9.10407 3.43636 10.7751 3.03723 12.4461C2.47551 14.7919 1.91418 17.1378 1.35323 19.4839C1.24755 19.9281 1.28646 19.9902 1.75391 20.0007C2.5088 20.0181 3.2637 20.0053 4.01859 20.0053V19.9978C4.90763 19.9978 5.7984 20.0366 6.68453 19.9896C8.61997 19.8874 10.5014 19.5303 12.2591 18.66C14.0883 17.7536 15.5232 16.4217 16.5034 14.6345C17.7472 12.355 18.0852 9.92973 17.4714 7.40111Z" fill="#2EB5C4"/>
<path d="M47.0714 5.55821C47.8083 5.38809 48.4244 4.59903 48.4174 3.83434C48.4176 3.68464 48.3853 3.53669 48.3229 3.40063C48.2605 3.26457 48.1693 3.14363 48.0557 3.0461C47.9422 2.94858 47.8088 2.87679 47.6649 2.83566C47.5209 2.79452 47.3697 2.785 47.2218 2.80779C46.8113 2.86469 46.4353 3.06853 46.1637 3.38147C45.892 3.69441 45.7431 4.09523 45.7445 4.5096C45.7457 5.34744 46.2514 5.74924 47.0714 5.55821Z" fill="#2EB5C4"/>
<path d="M28.4127 15.7243C28.5445 15.8666 28.6415 15.9705 28.7373 16.0762C29.1072 16.4826 29.5584 16.694 30.1188 16.6853C30.7674 16.6754 31.3475 16.4681 31.8968 16.1401C32.7783 15.6135 33.3904 14.8354 33.9107 13.9779C34.6719 12.7225 35.1168 11.3598 35.3142 9.90302C35.4112 9.18711 35.3891 8.49964 35.1708 7.81682C34.9867 7.24026 34.6261 6.83382 34.0047 6.7415C33.5895 6.67996 33.1604 6.6968 32.7894 6.91163C32.4084 7.13227 32.0577 7.40518 31.6942 7.65543L31.333 7.95154C31.3754 7.77736 31.4125 7.62523 31.4491 7.47137C31.4607 7.42492 31.4695 7.37671 31.4851 7.33143C31.6088 6.96854 31.6013 6.95287 31.2256 6.95113C30.7134 6.95113 30.2001 6.961 29.6879 6.94764C29.4016 6.94009 29.2355 7.06376 29.1403 7.32272C28.9828 7.74851 28.8225 8.17275 28.6595 8.59545C28.0353 10.2166 27.4261 11.8441 26.7763 13.4553C26.4889 14.1671 25.9634 14.7175 25.3496 15.1751C25.1341 15.3359 24.8635 15.5275 24.6104 15.3528C24.3705 15.1861 24.4942 14.8795 24.5703 14.656C25.0194 13.3612 25.4787 12.0701 25.9483 10.7827C26.3664 9.63012 26.8007 8.48281 27.2223 7.33143C27.328 7.04111 27.2711 6.95692 26.9651 6.95053C26.4912 6.94008 26.0168 6.96215 25.5441 6.93834C25.1655 6.91918 24.9675 7.07652 24.8287 7.42374C24.2306 8.91943 23.6673 10.4331 22.9775 11.8864C22.5344 12.8207 21.9195 13.6794 21.3243 14.5317C21.096 14.8581 20.7203 15.0897 20.3853 15.3272C20.2848 15.3986 20.0514 15.4021 19.9602 15.3319C19.8691 15.2616 19.8586 15.0595 19.8609 14.9161C19.8695 14.7615 19.9032 14.6093 19.9608 14.4656C20.399 13.259 20.8411 12.0538 21.2871 10.85C21.7185 9.69225 22.1628 8.53912 22.5936 7.38135C22.7272 7.02311 22.6668 6.94822 22.287 6.9488C21.7743 6.9488 21.2615 6.95982 20.7494 6.95169C20.4991 6.94763 20.3539 7.05332 20.2697 7.28266C19.4707 9.44723 18.663 11.6077 17.8721 13.7746C17.6398 14.4046 17.483 15.052 17.6851 15.7296C17.8337 16.2295 18.1496 16.5245 18.6612 16.6516C19.4417 16.8479 20.0845 16.5669 20.682 16.1116C21.3481 15.6042 21.7969 14.915 22.2365 14.22C22.3312 14.0707 22.42 13.918 22.5112 13.7671C22.5544 13.8296 22.5723 13.9061 22.5611 13.9813C22.488 14.3877 22.3997 14.7942 22.3381 15.2041C22.2971 15.4286 22.3187 15.66 22.4007 15.873C22.4826 16.086 22.6217 16.2722 22.8027 16.4112C22.8927 16.4809 22.9769 16.5709 23.075 16.6162C23.5611 16.8363 24.0326 16.7492 24.4931 16.525L25.993 15.4991C25.9857 15.5622 25.9737 15.6247 25.957 15.686C25.6376 16.5349 25.3171 17.3834 24.9954 18.2315C24.328 19.9912 23.6606 21.7511 22.9932 23.5111C22.8642 23.852 22.956 23.9838 23.3166 23.9913C23.7324 24 24.1481 23.9942 24.5639 23.9994C25.1446 24.007 25.2497 23.9477 25.4512 23.4188C26.3865 20.9558 27.3202 18.492 28.2524 16.0274C28.2999 15.9234 28.3534 15.8221 28.4127 15.7243ZM29.1537 13.7073C29.4951 12.7243 29.8377 11.7332 30.2918 10.8001C30.6722 10.0174 31.1977 9.30208 31.6884 8.57688C31.8405 8.35218 32.0728 8.17042 32.2964 8.00669C32.7934 7.64321 33.1616 7.80695 33.2475 8.41312C33.2626 8.51822 33.2615 8.62506 33.2678 8.72609C33.2173 9.66728 32.9543 10.5556 32.6401 11.4277C32.2011 12.647 31.6878 13.8373 30.8202 14.8279C30.5655 15.1293 30.2688 15.3927 29.9393 15.61C29.3952 15.9514 28.9127 15.6861 28.9208 15.0387C28.928 14.5852 29.0074 14.1358 29.156 13.7073H29.1537Z" fill="#2EB5C4"/>
<path d="M57.5011 13.9837C57.4645 13.4901 57.2073 13.0976 56.7915 12.9461C56.327 12.7777 55.8676 12.8915 55.5285 13.2718C55.4072 13.4077 55.3113 13.5668 55.1975 13.7102C54.8631 14.1329 54.5379 14.5637 54.1836 14.969C54.0547 15.1165 53.8753 15.3481 53.6477 15.2012C53.42 15.0543 53.5385 14.7948 53.6088 14.5922C54.0245 13.3978 54.4525 12.2081 54.8706 11.0149C55.1795 10.133 55.5494 9.27306 55.6406 8.32316C55.7143 7.55442 55.2434 6.84662 54.517 6.74385C53.9043 6.65734 53.3271 6.75546 52.7975 7.10442C51.8394 7.73498 51.221 8.65005 50.6589 9.61505C50.6589 9.49893 50.6589 9.38279 50.6589 9.27073C50.6809 9.1877 50.6984 9.10236 50.7274 9.02224C50.9324 8.45032 51.1426 7.88129 51.3452 7.3088C51.4451 7.0272 51.3963 6.94707 51.1066 6.94358C50.5654 6.93778 50.0236 6.94881 49.4807 6.94939C49.3879 6.94333 49.2958 6.96923 49.2199 7.0228C49.1439 7.07636 49.0886 7.15438 49.0631 7.24379C48.6853 8.28891 48.3075 9.33267 47.9296 10.3751C47.6672 11.0805 47.3791 11.7779 47.1474 12.4938C46.7915 13.5941 46.2009 14.5161 45.2445 15.1861C45.0529 15.3203 44.8113 15.4933 44.6215 15.3023C44.5135 15.1931 44.5222 14.9063 44.5686 14.7216C44.6662 14.3303 44.8172 13.9512 44.9559 13.5703C45.7162 11.4758 46.4781 9.38203 47.2415 7.28907C47.3414 7.01443 47.3071 6.95522 47.022 6.95348C46.4611 6.95057 45.9001 6.961 45.338 6.96042C45.2456 6.95374 45.1537 6.97931 45.078 7.03277C45.0023 7.08624 44.9474 7.16431 44.9228 7.25366C44.8067 7.58055 44.6784 7.90453 44.5744 8.23491C44.2732 9.2117 43.6669 10.0663 42.8445 10.6735C42.7611 10.7257 42.6742 10.772 42.5844 10.8123C42.5844 10.6701 42.5792 10.587 42.5844 10.5046C42.6233 9.96574 42.6767 9.42808 42.7034 8.88868C42.7615 7.67517 42.0827 6.83444 41.0003 6.73109C39.897 6.626 38.9197 6.94358 38.1056 7.66704C36.0511 9.4931 35.0517 11.8046 35.1063 14.5451C35.1243 15.426 35.5964 16.0937 36.3966 16.5013C37.1445 16.8827 37.8983 16.8113 38.6346 16.4844C39.6397 16.0379 40.3888 15.2819 40.9573 14.368C41.358 13.7241 41.6791 13.0274 42.0026 12.3359C42.2836 11.7355 42.8968 11.6043 43.3759 11.2652C43.3721 11.4023 43.345 11.5378 43.2957 11.6658C43.0681 12.2917 42.8312 12.9136 42.6111 13.543C42.3963 14.1637 42.1971 14.7878 42.2418 15.4625C42.2813 16.0693 42.6727 16.5419 43.2737 16.6569C43.5496 16.7136 43.8345 16.7113 44.1095 16.6501C44.3845 16.589 44.6435 16.4704 44.8694 16.3021C45.1958 16.0658 45.4844 15.7795 45.7921 15.5159C45.8624 15.4579 45.9414 15.4068 46.0168 15.3528L46.0836 15.4108C45.9867 15.6692 45.8885 15.9276 45.7933 16.1871C45.6882 16.4728 45.7282 16.5355 46.0285 16.5355C46.5563 16.5355 47.0853 16.5268 47.6132 16.5419C47.9349 16.5512 48.1096 16.4118 48.2153 16.1163C48.4877 15.3528 48.7676 14.5916 49.062 13.8362C49.2943 13.2434 49.5498 12.661 49.7948 12.074C49.9057 11.8708 50.0178 11.6676 50.127 11.4649C50.6711 10.45 51.2407 9.44841 52.0432 8.61347C52.2879 8.3568 52.585 8.15581 52.9143 8.02415C53.2737 7.88886 53.4984 8.14897 53.3887 8.52522C53.2621 8.96011 53.1076 9.38743 52.9549 9.81419C52.4323 11.2768 51.8911 12.7336 51.3871 14.2032C51.2773 14.5242 51.2512 14.886 51.2494 15.2297C51.243 16.55 52.5002 17.0372 53.5362 16.4432C54.0902 16.1256 54.449 15.6187 54.805 15.1118C55.1609 14.6049 55.5134 14.0766 55.8851 13.572C56.0413 13.3607 56.2776 13.3072 56.5383 13.3798C56.8107 13.4553 56.9657 13.6237 57.0029 13.9059C57.0975 14.5945 56.8728 15.2053 56.529 15.7772C55.6621 17.2189 54.3677 18.152 52.8364 18.7732C50.6618 19.6564 48.3652 19.9014 46.0476 19.9502C44.0262 19.9931 42.0072 19.9269 39.9905 19.7719C38.2852 19.6399 36.5778 19.5316 34.8682 19.4468C33.4299 19.3765 31.9892 19.3307 30.5496 19.3307C29.9968 19.3307 29.4423 19.4758 28.8918 19.5728C28.5649 19.6308 28.35 19.8282 28.2269 20.1505C27.9731 20.8182 27.6927 21.4761 27.4284 22.1397C27.3332 22.3716 27.2504 22.6085 27.1805 22.8492C27.1567 22.9346 27.2026 23.0397 27.2165 23.1355C27.2931 23.0873 27.3843 23.0525 27.4453 22.9886C27.8703 22.5438 28.3163 22.1205 28.9493 22.0096C29.3584 21.9374 29.7721 21.8938 30.1873 21.879C33.1964 21.782 36.198 21.9835 39.2013 22.1217C40.3987 22.1769 41.5984 22.2547 42.7952 22.2303C44.039 22.2053 45.284 22.1014 46.5226 21.9754C48.228 21.8104 49.9013 21.4046 51.4927 20.77C53.6993 19.8788 55.561 18.5549 56.7718 16.4461C57.2114 15.6837 57.5691 14.8976 57.5011 13.9837ZM40.9771 12.4915C40.4504 13.6742 39.8331 14.7966 38.7263 15.5444C38.5022 15.6959 38.1961 15.7685 37.9203 15.7917C37.5516 15.8231 37.3698 15.6053 37.3216 15.2343C37.2165 14.4261 37.3123 13.6324 37.5394 12.8625C37.7664 12.0926 38.062 11.3325 38.3326 10.5702C38.3756 10.4815 38.4247 10.396 38.4795 10.3141C38.5376 10.5022 38.5753 10.6044 38.5957 10.7153C38.6635 11.0982 38.8545 11.4485 39.1397 11.7128C39.425 11.9771 39.7887 12.1411 40.1757 12.1797C40.3865 12.2029 40.5967 12.2296 40.8075 12.2499C40.9637 12.265 41.052 12.3237 40.9771 12.4915ZM41.9242 9.04662C41.8603 9.66789 41.7203 10.2822 41.5845 10.893C41.5003 11.2727 41.4021 11.3232 41.0142 11.3198C40.966 11.3198 40.9172 11.3198 40.869 11.3198C39.9574 11.3006 39.5265 10.8523 39.5486 9.8589C39.5439 9.18537 39.8197 8.52928 40.3035 7.95911C40.4294 7.81318 40.578 7.6885 40.7436 7.58984C41.1797 7.32972 41.6448 7.48243 41.7889 7.96957C41.8928 8.31272 41.9602 8.69418 41.9242 9.04662Z" fill="#2EB5C4"/>
</svg>
