<svg width="36" height="36" viewBox="0 0 23 28" fill="none" xmlns="http://www.w3.org/2000/svg">
    <g clip-path="url(#a)" fill="#2EB5C4">
        <path d="m22.55 4.89-.343-3.518a1.52 1.52 0 0 0-1.513-1.37H6.595l-.624 3.461-.259 1.428h.004l-.955 5.373 4.16 3.965 1.672-9.338h11.956z"></path>
        <path d="M18.57 16.946a6.265 6.265 0 0 0-1.345.417c.037.166.065.334.084.503a6.89 6.89 0 0 1 1.13-.323 6.554 6.554 0 0 1 3.843.415 9.629 9.629 0 0 0-.04-.548 5.962 5.962 0 0 0-3.673-.464zm0 2.262a6.28 6.28 0 0 0-1.406.446 4.506 4.506 0 0 1-.194.552c.43-.18.876-.315 1.332-.404a6.551 6.551 0 0 1 3.817.405c.035-.183.065-.367.09-.552a5.962 5.962 0 0 0-3.639-.449v.002zm2.052-1.157a5.942 5.942 0 0 0-2.052.034c-.423.08-.837.204-1.234.37-.003.18-.016.36-.039.539a6.873 6.873 0 0 1 1.143-.327 6.55 6.55 0 0 1 3.827.408 9.28 9.28 0 0 0 .023-.506 6.19 6.19 0 0 0-1.668-.52v.002zm-2.191 2.293c-1.12.212-1.868.677-1.943.726a4.66 4.66 0 0 1-8.286-1.388H3.153C3.785 24.378 7.81 28 12.68 28c4.49 0 8.261-3.08 9.318-7.242a5.964 5.964 0 0 0-3.566-.417v.003zm-1.839-4.484a6.68 6.68 0 0 1 1.85-.647 6.54 6.54 0 0 1 3.393.244c-1.24-3.877-4.87-6.683-9.156-6.683-.598 0-1.196.056-1.784.166l-1.041 5.742a4.658 4.658 0 0 1 6.738 1.178zm1.978-.106a6.18 6.18 0 0 0-1.704.59c.077.156.145.317.203.482.441-.188.9-.328 1.371-.42a6.547 6.547 0 0 1 3.716.362 9.821 9.821 0 0 0-.134-.651 5.945 5.945 0 0 0-3.452-.365v.002zm-17.362.963.877-1.5h.918l-1.497 2.262-.209 1.207H.47l.224-1.287L0 15.22l.848-.002.36 1.5zm3.784.499H3.717l-.145.826H5.08l-.112.644H2.645l.6-3.47h2.328l-.112.647h-1.51l-.129.731h1.277l-.107.622zm2.364.822H6.247l-.308.648h-.897l1.837-3.47h.767l.641 3.47H7.44l-.083-.648zm-.803-.646h.72l-.153-1.196-.567 1.196zm3.495.069h-.453l-.214 1.225h-.815l.6-3.47 1.285.003c.152.002.304.025.451.067.135.037.26.1.37.187a.836.836 0 0 1 .243.317c.06.144.082.3.066.456-.017.251-.09.46-.216.623a1.28 1.28 0 0 1-.534.39l.467 1.386v.04h-.869l-.38-1.224zm-.343-.646.477.005a.64.64 0 0 0 .216-.034.527.527 0 0 0 .3-.255.631.631 0 0 0 .065-.386.37.37 0 0 0-.055-.143.283.283 0 0 0-.112-.096.423.423 0 0 0-.171-.04l-.553-.003-.167.952z"></path>
        <path d="M13.586 17.75a.309.309 0 0 0-.02-.194.382.382 0 0 0-.115-.133.81.81 0 0 0-.167-.094 5.266 5.266 0 0 0-.181-.073 3.907 3.907 0 0 1-.37-.165 1.58 1.58 0 0 1-.332-.224.99.99 0 0 1-.232-.303.793.793 0 0 1-.074-.401.866.866 0 0 1 .075-.32c.042-.093.1-.18.169-.255.07-.075.15-.14.24-.193a1.54 1.54 0 0 1 .29-.132c.101-.034.206-.059.313-.074.104-.015.21-.021.315-.02.156.002.31.028.457.079.134.045.258.117.365.21a.955.955 0 0 1 .244.337c.06.143.088.298.084.453l-.81-.002a.483.483 0 0 0-.09-.318c-.062-.08-.164-.122-.306-.125a.67.67 0 0 0-.34.084.446.446 0 0 0-.13.115.357.357 0 0 0-.07.254.22.22 0 0 0 .036.083c.036.05.08.091.133.123a.978.978 0 0 0 .176.089l.163.062c.13.049.258.106.38.17.12.063.228.14.325.233a.88.88 0 0 1 .283.725.929.929 0 0 1-.456.765 1.37 1.37 0 0 1-.426.175 1.972 1.972 0 0 1-.473.053 1.701 1.701 0 0 1-.505-.082 1.21 1.21 0 0 1-.41-.226 1.01 1.01 0 0 1-.275-.365 1.17 1.17 0 0 1-.093-.504l.817.002c-.008.18.028.315.107.405.08.09.212.137.396.138a.728.728 0 0 0 .171-.02.533.533 0 0 0 .153-.064.389.389 0 0 0 .183-.269z"></path>
    </g>
    <defs>
        <clipPath id="a">
            <path fill="#fff" d="M0 0h22.548v28H0z"></path>
        </clipPath>
    </defs>
</svg>