<?xml version="1.0" encoding="UTF-8"?><svg id="Layer_1" xmlns="http://www.w3.org/2000/svg" viewBox="0 0 192 220"><defs><style>.cls-1{fill:#afadab;}</style></defs><path d="M85.91,32.36c-.68.61-1.58.92-2.69.92h-5.07v-12.1h4.86c1.17,0,2.08.31,2.75.92.66.61,1,1.44,1,2.48,0,.61-.16,1.14-.47,1.57-.31.44-.65.75-1.03.93,1.11.52,1.67,1.43,1.67,2.72,0,1.1-.34,1.96-1.02,2.57ZM83.98,23.66c-.27-.26-.66-.38-1.16-.38h-2.31v2.79h2.31c.5,0,.88-.13,1.16-.38.27-.25.41-.59.41-1.01s-.14-.76-.41-1.01ZM84.15,28.61c-.27-.28-.66-.42-1.17-.42h-2.46v2.97h2.46c.51,0,.9-.14,1.17-.42.27-.28.41-.64.41-1.07s-.14-.78-.41-1.06Z"/><path d="M89.34,33.27v-12.1h7.97v2.11h-5.61v2.84h4.78v2.11h-4.78v2.94h5.61v2.11h-7.97Z"/><path d="M106.18,32.4c-.84.65-1.92.98-3.22.98-.96,0-1.8-.12-2.5-.37-.7-.24-1.34-.65-1.92-1.23l1.53-1.53c.68.68,1.65,1.02,2.92,1.02,1.43,0,2.14-.5,2.14-1.5,0-.44-.12-.78-.37-1.02-.23-.2-.58-.35-1.07-.42l-1.46-.2c-1.03-.15-1.81-.48-2.35-1-.58-.58-.87-1.37-.87-2.38,0-1.1.38-1.99,1.14-2.66.76-.67,1.78-1.01,3.08-1.01,1.63,0,2.94.47,3.91,1.41l-1.5,1.48c-.58-.56-1.41-.83-2.48-.83-.6,0-1.06.14-1.38.43-.32.29-.48.65-.48,1.1,0,.35.12.64.36.87.27.25.65.41,1.12.48l1.43.2c1.02.15,1.79.46,2.31.94.62.59.94,1.44.94,2.57s-.42,2.04-1.27,2.69Z"/><path d="M114.29,23.28v10h-2.36v-10h-3.16v-2.11h8.69v2.11h-3.16Z"/><path d="M50.18,53.67v-12.1h2.36v12.1h-2.36Z"/><path d="M62.52,53.67l-4.79-7.43v7.43h-2.36v-12.1h2.11l4.79,7.41v-7.41h2.36v12.1h-2.11Z"/><path d="M74.61,53.67l-4.79-7.43v7.43h-2.36v-12.1h2.11l4.79,7.41v-7.41h2.36v12.1h-2.11Z"/><path d="M88.06,49.14c-.01.32-.05.71-.12,1.18-.07.47-.19.87-.37,1.2s-.41.64-.71.93c-.88.88-1.97,1.33-3.26,1.33s-2.4-.44-3.28-1.33c-.29-.29-.53-.6-.7-.93-.17-.32-.29-.73-.36-1.22s-.11-.88-.12-1.17c-.01-.29-.02-.8-.02-1.51s0-1.22.02-1.51c.01-.29.05-.69.12-1.17s.19-.89.36-1.22c.17-.32.4-.63.7-.93.88-.88,1.98-1.33,3.28-1.33s2.38.44,3.26,1.33c.29.29.53.61.71.94s.3.73.37,1.2c.07.47.11.86.12,1.18.01.32.02.82.02,1.51s0,1.2-.02,1.51ZM85.59,45.27c-.08-.44-.24-.78-.48-1.05-.37-.43-.88-.65-1.51-.65s-1.16.22-1.53.65c-.24.26-.39.61-.47,1.04-.07.43-.11,1.22-.11,2.36s.04,1.93.11,2.36c.07.43.23.78.47,1.04.37.43.88.65,1.53.65s1.14-.22,1.51-.65c.24-.26.4-.61.48-1.05.08-.44.12-1.22.12-2.35s-.04-1.92-.12-2.35Z"/><path d="M94.72,53.67h-1.77l-4-12.1h2.45l2.43,7.89,2.43-7.89h2.46l-4.01,12.1Z"/><path d="M106.48,53.67l-.71-2.14h-4.3l-.73,2.14h-2.46l4.4-12.1h1.85l4.42,12.1h-2.46ZM103.66,45.14l-1.53,4.4h3.01l-1.48-4.4Z"/><path d="M114.05,43.68v10h-2.36v-10h-3.16v-2.11h8.69v2.11h-3.16Z"/><path d="M119.13,53.67v-12.1h2.36v12.1h-2.36Z"/><path d="M132.83,49.14c-.01.32-.05.71-.12,1.18-.07.47-.19.87-.37,1.2-.17.33-.41.64-.71.93-.88.88-1.97,1.33-3.26,1.33s-2.4-.44-3.28-1.33c-.29-.29-.53-.6-.7-.93-.17-.32-.29-.73-.36-1.22-.07-.49-.11-.88-.12-1.17-.01-.29-.02-.8-.02-1.51s0-1.22.02-1.51c.01-.29.05-.69.12-1.17.07-.49.19-.89.36-1.22.17-.32.4-.63.7-.93.88-.88,1.98-1.33,3.28-1.33s2.38.44,3.26,1.33c.29.29.53.61.71.94.18.33.3.73.37,1.2.07.47.11.86.12,1.18.01.32.02.82.02,1.51s0,1.2-.02,1.51ZM130.37,45.27c-.08-.44-.24-.78-.48-1.05-.37-.43-.88-.65-1.51-.65s-1.16.22-1.53.65c-.24.26-.39.61-.47,1.04-.07.43-.11,1.22-.11,2.36s.04,1.93.11,2.36c.07.43.23.78.47,1.04.37.43.88.65,1.53.65s1.14-.22,1.51-.65c.24-.26.4-.61.48-1.05.08-.44.12-1.22.12-2.35s-.04-1.92-.12-2.35Z"/><path d="M142.42,53.67l-4.79-7.43v7.43h-2.36v-12.1h2.11l4.79,7.41v-7.41h2.36v12.1h-2.11Z"/><path d="M40.03,64.08v2.97h4.78v2.11h-4.78v4.91h-2.36v-12.1h7.97v2.11h-5.61Z"/><path d="M55.88,69.54c-.01.32-.05.71-.12,1.18-.07.47-.19.87-.37,1.2s-.41.64-.71.94c-.88.88-1.97,1.33-3.26,1.33s-2.4-.44-3.28-1.33c-.29-.29-.53-.6-.7-.93-.17-.32-.29-.73-.36-1.22s-.11-.88-.12-1.17c-.01-.29-.02-.8-.02-1.51s0-1.22.02-1.51c.01-.29.05-.69.12-1.17s.19-.89.36-1.22c.17-.32.4-.63.7-.93.88-.88,1.98-1.33,3.28-1.33s2.38.44,3.26,1.33c.29.29.53.61.71.94s.3.73.37,1.2c.07.47.11.86.12,1.18.01.32.02.82.02,1.51s0,1.2-.02,1.51ZM53.41,65.67c-.08-.44-.24-.78-.48-1.05-.37-.43-.88-.65-1.51-.65s-1.16.22-1.53.65c-.24.26-.39.61-.47,1.04-.07.43-.11,1.22-.11,2.36s.04,1.93.11,2.36c.07.43.23.78.47,1.04.37.43.88.65,1.53.65s1.14-.22,1.51-.65c.24-.26.4-.61.48-1.05.08-.44.12-1.22.12-2.35s-.04-1.92-.12-2.35Z"/><path d="M64.73,74.07l-2.36-4.83h-1.7v4.83h-2.36v-12.1h4.74c1.2,0,2.16.36,2.86,1.07.71.71,1.06,1.59,1.06,2.63,0,.8-.21,1.48-.63,2.02-.42.54-.95.93-1.58,1.16l2.7,5.22h-2.74ZM64.14,64.52c-.32-.29-.73-.44-1.24-.44h-2.23v3.2h2.23c.51,0,.92-.15,1.24-.44.32-.29.48-.68.48-1.16s-.16-.86-.48-1.16Z"/><path d="M69.42,74.07v-12.1h7.97v2.11h-5.61v2.84h4.78v2.11h-4.78v2.94h5.61v2.11h-7.97Z"/><path d="M85.76,74.07l-2.35-4.22-2.33,4.22h-2.7l3.76-6.2-3.52-5.9h2.69l2.11,3.91,2.12-3.91h2.67l-3.52,5.9,3.77,6.2h-2.7Z"/><path d="M101.66,73.16c-.68.61-1.58.92-2.69.92h-5.07v-12.1h4.86c1.17,0,2.08.31,2.75.92.66.61.99,1.44.99,2.48,0,.61-.16,1.14-.47,1.57-.31.44-.65.75-1.03.93,1.11.52,1.67,1.43,1.67,2.72,0,1.1-.34,1.96-1.02,2.57ZM99.74,64.46c-.27-.26-.66-.38-1.16-.38h-2.31v2.79h2.31c.5,0,.88-.13,1.16-.38.27-.25.41-.59.41-1.01s-.14-.76-.41-1.01ZM99.91,69.41c-.27-.28-.66-.42-1.17-.42h-2.46v2.97h2.46c.51,0,.9-.14,1.17-.42.27-.28.41-.64.41-1.07s-.14-.78-.41-1.06Z"/><path d="M111.52,74.07l-2.36-4.83h-1.7v4.83h-2.36v-12.1h4.74c1.2,0,2.16.36,2.86,1.07.71.71,1.06,1.59,1.06,2.63,0,.8-.21,1.48-.63,2.02-.42.54-.95.93-1.58,1.16l2.7,5.22h-2.74ZM110.92,64.52c-.32-.29-.73-.44-1.24-.44h-2.23v3.2h2.23c.51,0,.92-.15,1.24-.44.32-.29.48-.68.48-1.16s-.16-.86-.48-1.16Z"/><path d="M124.72,69.54c-.01.32-.05.71-.12,1.18-.07.47-.19.87-.37,1.2s-.41.64-.71.94c-.88.88-1.97,1.33-3.26,1.33s-2.4-.44-3.28-1.33c-.29-.29-.53-.6-.7-.93-.17-.32-.29-.73-.36-1.22s-.11-.88-.12-1.17c-.01-.29-.02-.8-.02-1.51s0-1.22.02-1.51c.01-.29.05-.69.12-1.17s.19-.89.36-1.22c.17-.32.4-.63.7-.93.88-.88,1.98-1.33,3.28-1.33s2.38.44,3.26,1.33c.29.29.53.61.71.94s.3.73.37,1.2c.07.47.11.86.12,1.18.01.32.02.82.02,1.51s0,1.2-.02,1.51ZM122.26,65.67c-.08-.44-.24-.78-.48-1.05-.37-.43-.88-.65-1.51-.65s-1.16.22-1.53.65c-.24.26-.39.61-.47,1.04-.07.43-.11,1.22-.11,2.36s.04,1.93.11,2.36c.07.43.23.78.47,1.04.37.43.88.65,1.53.65s1.14-.22,1.51-.65c.24-.26.4-.61.48-1.05.08-.44.12-1.22.12-2.35s-.04-1.92-.12-2.35Z"/><path d="M134.19,74.07l-3.11-5.51-1.56,1.87v3.64h-2.36v-12.1h2.36v5.27l4.27-5.27h2.87l-4.01,4.81,4.3,7.29h-2.75Z"/><path d="M138.46,74.07v-12.1h7.97v2.11h-5.61v2.84h4.78v2.11h-4.78v2.94h5.61v2.11h-7.97Z"/><path d="M155.17,74.07l-2.36-4.83h-1.7v4.83h-2.36v-12.1h4.74c1.2,0,2.16.36,2.86,1.07s1.06,1.59,1.06,2.63c0,.8-.21,1.48-.63,2.02s-.95.93-1.58,1.16l2.7,5.22h-2.74ZM154.58,64.52c-.32-.29-.73-.44-1.24-.44h-2.23v3.2h2.23c.51,0,.92-.15,1.24-.44.32-.29.48-.68.48-1.16s-.16-.86-.48-1.16Z"/><path d="M79.9,94.47v-1.99l4.52-5.25c.42-.5.63-.99.63-1.46s-.13-.82-.38-1.1c-.25-.28-.62-.42-1.08-.42-.42,0-.77.12-1.05.37s-.42.64-.42,1.18h-2.21c0-1.08.35-1.94,1.05-2.58.7-.64,1.58-.96,2.64-.96s1.97.32,2.65.95c.68.63,1.02,1.49,1.02,2.57,0,.54-.1,1-.29,1.38-.19.37-.53.84-1,1.39l-3.38,3.93h4.67v1.99h-7.36Z"/><path d="M95.36,93.61c-.71.65-1.58.97-2.61.97s-1.9-.32-2.62-.97c-.71-.65-1.07-1.52-1.07-2.63v-5.1c0-1.11.36-1.99,1.07-2.63s1.59-.97,2.62-.97,1.9.32,2.61.97,1.06,1.52,1.06,2.63v5.1c0,1.11-.35,1.99-1.06,2.63ZM94.21,85.91c0-.51-.13-.91-.4-1.21-.27-.29-.62-.44-1.06-.44s-.8.15-1.07.45c-.27.3-.41.7-.41,1.2v5.05c0,.5.14.9.41,1.19.27.29.63.44,1.07.44s.8-.15,1.06-.44c.27-.29.4-.69.4-1.19v-5.05Z"/><path d="M98.36,94.47v-1.99l4.52-5.25c.42-.5.63-.99.63-1.46s-.13-.82-.38-1.1c-.25-.28-.62-.42-1.08-.42-.42,0-.77.12-1.05.37s-.42.64-.42,1.18h-2.21c0-1.08.35-1.94,1.05-2.58.7-.64,1.58-.96,2.64-.96s1.97.32,2.65.95c.68.63,1.02,1.49,1.02,2.57,0,.54-.1,1-.29,1.38-.19.37-.53.84-1,1.39l-3.38,3.93h4.67v1.99h-7.36Z"/><path d="M114.18,92.76v1.72h-2.12v-1.72h-4.95v-2.09l4.15-8.29h2.41l-4.15,8.29h2.53v-2.26h2.12v2.26h1.11v2.09h-1.11Z"/><path d="M60.27,180.78v-8.38l-2.89,6.11h-1.41l-2.96-6.11v8.38h-1.9v-12.54h1.9l3.66,7.8,3.59-7.8h1.9v12.54h-1.9Z"/><path d="M71.19,179.83c-.58.6-1.46,1.06-2.68,1.06s-2.08-.46-2.66-1.06c-.85-.88-1.06-2.01-1.06-3.52s.21-2.62,1.06-3.5c.58-.6,1.44-1.06,2.66-1.06s2.1.46,2.68,1.06c.85.88,1.06,2.01,1.06,3.5s-.21,2.64-1.06,3.52ZM69.83,173.86c-.33-.33-.79-.51-1.32-.51s-.97.18-1.3.51c-.55.55-.62,1.48-.62,2.45s.07,1.9.62,2.45c.33.33.77.53,1.3.53s.99-.19,1.32-.53c.55-.55.62-1.48.62-2.45s-.07-1.9-.62-2.45Z"/><path d="M80.12,180.78v-5.44c0-1.39-.79-1.99-1.8-1.99s-1.85.62-1.85,1.99v5.44h-1.8v-8.93h1.76v.9c.62-.67,1.48-1,2.38-1s1.67.3,2.2.81c.69.67.9,1.51.9,2.52v5.71h-1.8Z"/><path d="M86.01,176.83c0,1.53.81,2.5,2.27,2.5,1,0,1.53-.28,2.17-.92l1.14,1.07c-.92.92-1.78,1.39-3.35,1.39-2.24,0-4.01-1.18-4.01-4.58,0-2.89,1.5-4.56,3.79-4.56s3.79,1.76,3.79,4.3v.79h-5.79ZM89.77,174.37c-.28-.67-.92-1.13-1.76-1.13s-1.5.46-1.78,1.13c-.18.4-.21.67-.23,1.21h4.01c-.02-.55-.07-.81-.25-1.21Z"/><path d="M96.8,182.55c-.18.49-.39.85-.65,1.11-.49.49-1.14.65-1.83.65h-.72v-1.62h.46c.76,0,1.02-.23,1.29-.95l.49-1.39-3.12-8.5h1.9l2.13,6.29,2.08-6.29h1.92l-3.95,10.71Z"/><path d="M106.69,180.78v-12.54h8.01v1.71h-6.11v3.66h5.21v1.69h-5.21v3.77h6.11v1.71h-8.01Z"/><path d="M121.98,180.78l-1.87-3.05-1.88,3.05h-2.17l3.06-4.56-2.94-4.37h2.17l1.76,2.91,1.74-2.91h2.17l-2.92,4.37,3.05,4.56h-2.17Z"/><path d="M132.26,180.09c-.49.49-1.27.79-2.17.79-.95,0-1.69-.25-2.34-1.02v4.53h-1.8v-12.54h1.76v.95c.67-.81,1.39-1.06,2.36-1.06.9,0,1.69.3,2.18.79.9.9,1,2.41,1,3.77s-.11,2.89-1,3.79ZM129.62,173.35c-1.62,0-1.87,1.37-1.87,2.96s.25,2.98,1.87,2.98,1.85-1.39,1.85-2.98-.23-2.96-1.85-2.96Z"/><path d="M141.67,179.83c-.58.6-1.46,1.06-2.68,1.06s-2.08-.46-2.66-1.06c-.85-.88-1.06-2.01-1.06-3.52s.21-2.62,1.06-3.5c.58-.6,1.44-1.06,2.66-1.06s2.1.46,2.68,1.06c.85.88,1.06,2.01,1.06,3.5s-.21,2.64-1.06,3.52ZM140.31,173.86c-.33-.33-.79-.51-1.32-.51s-.97.18-1.3.51c-.55.55-.62,1.48-.62,2.45s.07,1.9.62,2.45c.33.33.77.53,1.3.53s.99-.19,1.32-.53c.55-.55.62-1.48.62-2.45s-.07-1.9-.62-2.45Z"/><path d="M78.78,201.92v-12.54h1.9v12.54h-1.9Z"/><path d="M89.19,201.92v-5.44c0-1.39-.79-1.99-1.8-1.99s-1.85.62-1.85,1.99v5.44h-1.8v-8.93h1.76v.9c.62-.67,1.48-1,2.38-1s1.67.3,2.2.81c.69.67.9,1.51.9,2.52v5.71h-1.8Z"/><path d="M98.88,201.92v-.95c-.67.81-1.39,1.06-2.36,1.06-.9,0-1.69-.3-2.18-.79-.9-.9-1-2.43-1-3.79s.11-2.87,1-3.77c.49-.49,1.27-.79,2.17-.79.95,0,1.69.23,2.34,1v-4.51h1.8v12.54h-1.76ZM97,194.49c-1.62,0-1.87,1.37-1.87,2.96s.25,2.98,1.87,2.98,1.85-1.39,1.85-2.98-.23-2.96-1.85-2.96Z"/><path d="M103.45,191.23v-1.9h1.9v1.9h-1.9ZM103.5,201.92v-8.93h1.8v8.93h-1.8Z"/><path d="M112.96,201.92v-.81c-.65.65-1.27.92-2.38.92s-1.85-.26-2.39-.81c-.46-.48-.71-1.16-.71-1.92,0-1.5,1.04-2.57,3.08-2.57h2.36v-.63c0-1.13-.56-1.67-1.95-1.67-.99,0-1.46.23-1.96.86l-1.18-1.11c.84-.99,1.73-1.29,3.21-1.29,2.45,0,3.68,1.04,3.68,3.06v5.97h-1.76ZM112.92,197.97h-2.1c-1.06,0-1.6.48-1.6,1.29s.51,1.27,1.64,1.27c.69,0,1.2-.05,1.67-.51.26-.26.39-.69.39-1.32v-.72Z"/><path class="cls-1" d="M52.85,143.54l.32.94c1.51.29,3.01.72,4.53.86,5.78.5,11.19-.97,16.39-3.34,1.8-.82,3.52-1.83,5.33-2.61,4.64-2,10.09-.71,12.92,3.18-2.71,3.22-6.44,5.27-9.91,7.67,2.16,2.13,3.65,2.42,5.9.89,1.79-1.22,3.37-2.73,5.01-4.16,2.4-2.09,2.5-2.07,4.81.12,1.57,1.49,3.14,3.04,4.95,4.21,2.11,1.37,4.15.78,5.4-1.04l-10-7.59c3.58-4.64,9.95-5.43,15.04-2.53,6.21,3.54,12.78,5.77,20.09,5.23,1.65-.12,3.34-.14,4.62-1.97-.82-.83-1.49-1.68-2.32-2.32-9.13-6.92-19.23-8.99-30.24-5.68-2.62.8-5.08,2.2-7.49,3.54-1.84,1.02-3.31,1.03-5.2-.07-12.78-7.45-25.26-6.6-37.28,1.88-1.06.76-1.9,1.85-2.85,2.8ZM123.23,130.08c4.67,5.88,25.85,8.78,30.66,2.78-5.01-6.06-26.6-8.65-30.66-2.78ZM67.96,129.91c-5.2-5.87-27.55-2.43-30.5,3.06,4.79,6.2,26.41,2.59,30.5-3.06ZM191.3,79.74c-8.56-1.62-25.28,9.55-25.51,16.87,7.41,1.83,23.67-8.81,25.51-16.87ZM40.55,115.18c-.08-7.45-18.97-18.65-25.44-16.73.42,7.41,17.62,18.81,25.45,16.73h-.01ZM150.6,115.72c1.55-.13,3.22.11,4.57-.44,4.08-1.69,8.19-3.42,11.99-5.64,3.21-1.88,6.1-4.39,7.9-7.8.55-1.05.82-2.24,1.24-3.41-7.1-1.57-25.69,9.42-25.68,17.3h-.01ZM.11,79.89c.68,7.41,17.8,18.57,25.5,16.62-1.17-7.79-18.27-18.93-25.5-16.62H.11ZM190.85,59.63c-8.13,1.01-21.86,16.14-20.01,23.31.8-.18,1.67-.22,2.38-.58,7.17-3.63,12.83-8.88,16.47-16.08.98-1.92,2.17-4.05,1.16-6.65ZM.31,59.66c-2.8,6.62,13.98,23.99,19.95,22.82,2.63-6.11-12.8-22.93-19.95-22.82h0ZM171.7,119.4c-6.96-4.75-25.54-1.8-30.24,4.66,5.34,5.21,25.2,2.25,30.24-4.66h0ZM49.94,124.3c-5.13-6.9-24.93-9.87-30.36-4.71,4.11,6.33,22.5,9.26,30.37,4.71h0ZM188.66,38.64c-7.79,1.62-17.92,19.56-14.97,26.24,7.28-1.68,18.19-20.09,14.97-26.24h0ZM17.63,64.94c3.35-6.88-8.68-25.48-14.98-26.19-2.77,6.62,6.87,23.63,14.99,26.19h0ZM164.12,69.73c-.99,1.27-1.86,2.17-2.46,3.23-4.07,7.32-5.19,15.22-4.38,23.44.16,1.57.29,3.35,1.99,4.28,6.41-5.46,9.39-23.12,4.85-30.94h0ZM137.69,122.37c1.43-.8,2.79-1.26,3.75-2.15,6.46-6.02,10.94-13.22,12.52-22.01.17-.94-.11-1.96-.19-3.08-8.4,3.31-18.15,19.66-16.08,27.25h0ZM32.09,100.63c5.08-5.8.4-27.77-5.15-30.36-5.03,4.29-.7,27.5,5.14,30.36h0ZM53.38,121.85c2.26-7.09-8.13-24.74-15.62-26.51-2.24,7.01,8.32,24.94,15.61,26.52h0ZM82.7,132.11c-.08-1.97-.21-2.59-1.36-3.99-5.33-6.51-11.92-11.19-20.09-13.43-1.12-.31-2.4-.04-3.66-.04,1.29,7.62,17.01,18.36,25.1,17.46h0ZM133.65,114.91c-6.67-2.15-23.7,9.23-25.3,16.91,6.79,2.06,23.66-9.21,25.29-16.9h0ZM15.17,23.17c-4.69,5.45-1.44,23.81,4.79,27.96,4.75-5.58,1.79-23.43-4.8-27.96h0ZM175.82,22.68c-.67.78-1.26,1.31-1.66,1.96-4.2,6.9-5.87,14.39-4.88,22.4.18,1.44,1.07,2.79,1.68,4.29,6.75-5.2,9.65-22.53,4.85-28.65h0ZM145.28,22.85c.2,1.08.18,1.99.53,2.71,3.42,6.76,8.33,12.13,15.13,15.63,1.33.68,2.7,1.17,4.18.6.55-6.59-12.24-19.08-19.85-18.93h0ZM45.64,22.87c-7.46.2-19.75,12.07-19.73,18.85,6.62.99,19.69-11.35,19.72-18.85h0ZM164.05,5.74c-4.93,5.05-3.96,24.84,1.73,27.53,4.57-6.72,3.58-22.39-1.74-27.53h0ZM27.36,5.66c-5.43,4.76-6.39,23-1.61,27.62,5.32-4.85,6.32-20.56,1.61-27.61h0ZM34.76,21.64c6.95-1.52,15.93-15.2,14.31-21.51-6.38.27-15.81,14.29-14.32,21.51h0ZM142.28,0c-.18.31-.32.64-.43.98-.09.39-.1.79-.03,1.18,1.9,7.71,5.49,14.34,12.23,18.89.62.42,1.63.27,2.46.38.1-.74.39-1.52.25-2.22-1.21-6.3-4.3-11.63-8.81-16.1-1.47-1.45-2.99-3.24-5.69-3.12h0ZM169.92,68.55c.16-.8.38-1.35.37-1.9-.11-8.18-3.11-15.16-8.87-20.95-.55-.56-1.41-.81-2.16-1.24-2.56,6.59,3.99,21.37,10.65,24.09h0ZM31.95,44.72c-1.76.06-2.78,1.35-3.75,2.51-4.51,5.38-6.62,11.78-7.46,18.62-.11.87.5,1.82.8,2.83,6.91-3.93,12.56-17.24,10.41-23.95h0Z"/><path class="cls-1" d="M52.85,143.54c.95-.94,1.79-2.03,2.87-2.8,12.01-8.48,24.48-9.34,37.28-1.88,1.89,1.1,3.36,1.09,5.2.07,2.41-1.33,4.87-2.75,7.49-3.54,11.01-3.31,21.11-1.24,30.24,5.68.83.63,1.5,1.48,2.32,2.31-1.28,1.83-2.96,1.85-4.62,1.97-7.29.55-13.88-1.68-20.09-5.23-5.09-2.9-11.45-2.11-15.04,2.53l10,7.59c-1.25,1.82-3.29,2.41-5.4,1.04-1.8-1.16-3.37-2.72-4.95-4.21-2.31-2.19-2.43-2.22-4.81-.12-1.63,1.43-3.22,2.94-5.01,4.16-2.25,1.53-3.73,1.24-5.9-.89,3.46-2.39,7.19-4.45,9.91-7.67-2.82-3.89-8.27-5.18-12.92-3.18-1.82.78-3.53,1.79-5.33,2.61-5.2,2.37-10.61,3.84-16.39,3.34-1.53-.13-3.03-.56-4.53-.86l-.34-.94Z"/><path class="cls-1" d="M123.23,130.08c4.06-5.88,25.64-3.28,30.66,2.78-4.8,6-25.99,3.11-30.66-2.78Z"/><path class="cls-1" d="M37.46,132.97c4.79,6.2,26.41,2.59,30.5-3.06-5.2-5.87-27.55-2.43-30.5,3.06Z"/><path class="cls-1" d="M165.79,96.61c7.41,1.83,23.67-8.81,25.51-16.87-8.56-1.62-25.28,9.55-25.51,16.87Z"/><path class="cls-1" d="M40.56,115.18c-7.83,2.08-25.04-9.31-25.44-16.73,6.47-1.91,25.36,9.28,25.44,16.73Z"/><path class="cls-1" d="M150.61,115.72c0-7.88,18.59-18.87,25.7-17.29-.41,1.17-.68,2.36-1.24,3.41-1.81,3.41-4.69,5.93-7.9,7.8-3.8,2.22-7.91,3.95-11.99,5.64-1.35.55-3.02.31-4.57.44Z"/><path class="cls-1" d="M.11,79.9c7.24-2.31,24.34,8.83,25.5,16.62-7.71,1.94-24.83-9.22-25.5-16.62Z"/><path class="cls-1" d="M190.85,59.63c1.01,2.59-.18,4.71-1.16,6.65-3.63,7.2-9.3,12.45-16.47,16.08-.71.36-1.6.4-2.38.58-1.85-7.17,11.89-22.31,20.01-23.31Z"/><path class="cls-1" d="M.32,59.66c7.15-.12,22.58,16.71,19.95,22.82-5.98,1.18-22.75-16.2-19.95-22.82Z"/><path class="cls-1" d="M171.7,119.4c-5.04,6.92-24.91,9.88-30.24,4.66,4.7-6.46,23.29-9.42,30.24-4.66Z"/><path class="cls-1" d="M49.94,124.3c-7.87,4.55-26.26,1.62-30.36-4.71,5.44-5.16,25.23-2.19,30.36,4.71Z"/><path class="cls-1" d="M188.66,38.64c3.22,6.15-7.69,24.56-14.97,26.24-2.95-6.68,7.18-24.61,14.97-26.24Z"/><path class="cls-1" d="M17.64,64.94C9.52,62.38-.11,45.37,2.66,38.75c6.3.71,18.33,19.3,14.98,26.19Z"/><path class="cls-1" d="M164.12,69.73c4.53,7.82,1.56,25.48-4.86,30.94-1.7-.93-1.83-2.71-1.99-4.28-.8-8.22.31-16.12,4.38-23.44.59-1.06,1.48-1.95,2.46-3.23Z"/><path class="cls-1" d="M137.68,122.38c-2.07-7.6,7.68-23.94,16.09-27.25.08,1.12.36,2.14.19,3.08-1.6,8.8-6.07,15.99-12.52,22.01-.97.89-2.33,1.35-3.76,2.15Z"/><path class="cls-1" d="M32.08,100.63c-5.83-2.86-10.17-26.07-5.15-30.36,5.55,2.59,10.23,24.56,5.15,30.36Z"/><path class="cls-1" d="M53.37,121.85c-7.3-1.58-17.85-19.5-15.62-26.51,7.49,1.78,17.89,19.43,15.62,26.51Z"/><path class="cls-1" d="M82.69,132.11c-8.09.89-23.81-9.84-25.11-17.46,1.26,0,2.54-.27,3.66.04,8.18,2.24,14.76,6.92,20.09,13.43,1.15,1.41,1.28,2.02,1.36,3.99Z"/><path class="cls-1" d="M133.64,114.92c-1.63,7.68-18.51,18.96-25.3,16.91,1.6-7.68,18.63-19.05,25.3-16.91Z"/><path class="cls-1" d="M15.16,23.17c6.59,4.52,9.56,22.38,4.79,27.96-6.24-4.14-9.49-22.51-4.79-27.96Z"/><path class="cls-1" d="M175.81,22.68c4.79,6.12,1.9,23.44-4.86,28.65-.61-1.51-1.5-2.86-1.68-4.29-.99-8.01.68-15.5,4.88-22.4.4-.65.99-1.18,1.66-1.96Z"/><path class="cls-1" d="M145.27,22.85c7.61-.14,20.4,12.35,19.85,18.94-1.48.58-2.85.08-4.18-.6-6.8-3.51-11.72-8.87-15.13-15.63-.36-.72-.34-1.65-.54-2.71Z"/><path class="cls-1" d="M45.63,22.88c-.03,7.49-13.09,19.84-19.73,18.85-.03-6.78,12.26-18.65,19.73-18.85Z"/><path class="cls-1" d="M164.04,5.74c5.33,5.15,6.31,20.81,1.73,27.53-5.69-2.69-6.66-22.47-1.73-27.53Z"/><path class="cls-1" d="M27.35,5.66c4.71,7.05,3.73,22.76-1.61,27.62-4.78-4.62-3.81-22.85,1.61-27.62Z"/><path class="cls-1" d="M34.75,21.65C33.26,14.43,42.69.41,49.06.14c1.62,6.3-7.36,19.98-14.31,21.51Z"/><path class="cls-1" d="M142.27,0c2.69-.12,4.22,1.67,5.68,3.12,4.51,4.46,7.6,9.8,8.81,16.1.13.7-.16,1.48-.25,2.22-.83-.11-1.83.03-2.46-.38-6.74-4.55-10.33-11.17-12.23-18.89-.07-.39-.06-.79.03-1.18.11-.34.25-.67.43-.98Z"/><path class="cls-1" d="M169.91,68.55c-6.66-2.71-13.21-17.49-10.65-24.09.76.42,1.6.68,2.16,1.24,5.76,5.79,8.76,12.77,8.87,20.95,0,.55-.21,1.11-.38,1.9Z"/><path class="cls-1" d="M31.95,44.72c2.15,6.71-3.5,20.02-10.39,23.97-.3-1.01-.91-1.96-.8-2.83.84-6.85,2.93-13.25,7.46-18.62.96-1.17,1.97-2.46,3.73-2.52Z"/></svg>