<?xml version="1.0" encoding="UTF-8"?>
<svg id="Layer_1" data-name="Layer 1" xmlns="http://www.w3.org/2000/svg" viewBox="0 0 192 220">
  <defs>
    <style>
      .cls-1 {
        fill: #afadab;
      }
    </style>
  </defs>
  <path class="cls-1" d="M52.85,143.54l.32.94c1.51.29,3.01.72,4.53.86,5.78.5,11.19-.97,16.39-3.34,1.8-.82,3.52-1.83,5.33-2.61,4.64-2,10.09-.71,12.92,3.18-2.71,3.22-6.44,5.27-9.91,7.67,2.16,2.13,3.65,2.42,5.9.89,1.79-1.22,3.37-2.73,5.01-4.16,2.4-2.09,2.5-2.07,4.81.12,1.57,1.49,3.14,3.04,4.95,4.21,2.11,1.37,4.15.78,5.4-1.04l-10-7.59c3.58-4.64,9.95-5.43,15.04-2.53,6.21,3.54,12.78,5.77,20.09,5.23,1.65-.12,3.34-.14,4.62-1.97-.82-.83-1.49-1.68-2.32-2.32-9.13-6.92-19.23-8.99-30.24-5.68-2.62.8-5.08,2.2-7.49,3.54-1.84,1.02-3.31,1.03-5.2-.07-12.78-7.45-25.26-6.6-37.28,1.88-1.06.76-1.9,1.85-2.85,2.8ZM123.23,130.08c4.67,5.88,25.85,8.78,30.66,2.78-5.01-6.06-26.6-8.65-30.66-2.78ZM67.96,129.91c-5.2-5.87-27.55-2.43-30.5,3.06,4.79,6.2,26.41,2.59,30.5-3.06ZM191.3,79.74c-8.56-1.62-25.28,9.55-25.51,16.87,7.41,1.83,23.67-8.81,25.51-16.87ZM40.55,115.18c-.08-7.45-18.97-18.65-25.44-16.73.42,7.41,17.62,18.81,25.45,16.73h-.01ZM150.6,115.72c1.55-.13,3.22.11,4.57-.44,4.08-1.69,8.19-3.42,11.99-5.64,3.21-1.88,6.1-4.39,7.9-7.8.55-1.05.82-2.24,1.24-3.41-7.1-1.57-25.69,9.42-25.68,17.3h-.01ZM.11,79.89c.68,7.41,17.8,18.57,25.5,16.62-1.17-7.79-18.27-18.93-25.5-16.62H.11ZM190.85,59.63c-8.13,1.01-21.86,16.14-20.01,23.31.8-.18,1.67-.22,2.38-.58,7.17-3.63,12.83-8.88,16.47-16.08.98-1.92,2.17-4.05,1.16-6.65ZM.31,59.66c-2.8,6.62,13.98,23.99,19.95,22.82,2.63-6.11-12.8-22.93-19.95-22.82h0ZM171.7,119.4c-6.96-4.75-25.54-1.8-30.24,4.66,5.34,5.21,25.2,2.25,30.24-4.66h0ZM49.94,124.3c-5.13-6.9-24.93-9.87-30.36-4.71,4.11,6.33,22.5,9.26,30.37,4.71h0ZM188.66,38.64c-7.79,1.62-17.92,19.56-14.97,26.24,7.28-1.68,18.19-20.09,14.97-26.24h0ZM17.63,64.94c3.35-6.88-8.68-25.48-14.98-26.19-2.77,6.62,6.87,23.63,14.99,26.19h0ZM164.12,69.73c-.99,1.27-1.86,2.17-2.46,3.23-4.07,7.32-5.19,15.22-4.38,23.44.16,1.57.29,3.35,1.99,4.28,6.41-5.46,9.39-23.12,4.85-30.94h0ZM137.69,122.37c1.43-.8,2.79-1.26,3.75-2.15,6.46-6.02,10.94-13.22,12.52-22.01.17-.94-.11-1.96-.19-3.08-8.4,3.31-18.15,19.66-16.08,27.25h0ZM32.09,100.63c5.08-5.8.4-27.77-5.15-30.36-5.03,4.29-.7,27.5,5.14,30.36h0ZM53.38,121.85c2.26-7.09-8.13-24.74-15.62-26.51-2.24,7.01,8.32,24.94,15.61,26.52h0ZM82.7,132.11c-.08-1.97-.21-2.59-1.36-3.99-5.33-6.51-11.92-11.19-20.09-13.43-1.12-.31-2.4-.04-3.66-.04,1.29,7.62,17.01,18.36,25.1,17.46h0ZM133.65,114.91c-6.67-2.15-23.7,9.23-25.3,16.91,6.79,2.06,23.66-9.21,25.29-16.9h0ZM15.17,23.17c-4.69,5.45-1.44,23.81,4.79,27.96,4.75-5.58,1.79-23.43-4.8-27.96h0ZM175.82,22.68c-.67.78-1.26,1.31-1.66,1.96-4.2,6.9-5.87,14.39-4.88,22.4.18,1.44,1.07,2.79,1.68,4.29,6.75-5.2,9.65-22.53,4.85-28.65h0ZM145.28,22.85c.2,1.08.18,1.99.53,2.71,3.42,6.76,8.33,12.13,15.13,15.63,1.33.68,2.7,1.17,4.18.6.55-6.59-12.24-19.08-19.85-18.93h0ZM45.64,22.87c-7.46.2-19.75,12.07-19.73,18.85,6.62.99,19.69-11.35,19.72-18.85h0ZM164.05,5.74c-4.93,5.05-3.96,24.84,1.73,27.53,4.57-6.72,3.58-22.39-1.74-27.53h0ZM27.36,5.66c-5.43,4.76-6.39,23-1.61,27.62,5.32-4.85,6.32-20.56,1.61-27.61h0ZM34.76,21.64c6.95-1.52,15.93-15.2,14.31-21.51-6.38.27-15.81,14.29-14.32,21.51h0ZM142.28,0c-.18.31-.32.64-.43.98-.09.39-.1.79-.03,1.18,1.9,7.71,5.49,14.34,12.23,18.89.62.42,1.63.27,2.46.38.1-.74.39-1.52.25-2.22-1.21-6.3-4.3-11.63-8.81-16.1-1.47-1.45-2.99-3.24-5.69-3.12h0ZM169.92,68.55c.16-.8.38-1.35.37-1.9-.11-8.18-3.11-15.16-8.87-20.95-.55-.56-1.41-.81-2.16-1.24-2.56,6.59,3.99,21.37,10.65,24.09h0ZM31.95,44.72c-1.76.06-2.78,1.35-3.75,2.51-4.51,5.38-6.62,11.78-7.46,18.62-.11.87.5,1.82.8,2.83,6.91-3.93,12.56-17.24,10.41-23.95h0Z"/>
  <path class="cls-1" d="M52.85,143.54c.95-.94,1.79-2.03,2.87-2.8,12.01-8.48,24.48-9.34,37.28-1.88,1.89,1.1,3.36,1.09,5.2.07,2.41-1.33,4.87-2.75,7.49-3.54,11.01-3.31,21.11-1.24,30.24,5.68.83.63,1.5,1.48,2.32,2.31-1.28,1.83-2.96,1.85-4.62,1.97-7.29.55-13.88-1.68-20.09-5.23-5.09-2.9-11.45-2.11-15.04,2.53l10,7.59c-1.25,1.82-3.29,2.41-5.4,1.04-1.8-1.16-3.37-2.72-4.95-4.21-2.31-2.19-2.43-2.22-4.81-.12-1.63,1.43-3.22,2.94-5.01,4.16-2.25,1.53-3.73,1.24-5.9-.89,3.46-2.39,7.19-4.45,9.91-7.67-2.82-3.89-8.27-5.18-12.92-3.18-1.82.78-3.53,1.79-5.33,2.61-5.2,2.37-10.61,3.84-16.39,3.34-1.53-.13-3.03-.56-4.53-.86l-.34-.94Z"/>
  <path class="cls-1" d="M123.23,130.08c4.06-5.88,25.64-3.28,30.66,2.78-4.8,6-25.99,3.11-30.66-2.78Z"/>
  <path class="cls-1" d="M37.46,132.97c4.79,6.2,26.41,2.59,30.5-3.06-5.2-5.87-27.55-2.43-30.5,3.06Z"/>
  <path class="cls-1" d="M165.79,96.61c7.41,1.83,23.67-8.81,25.51-16.87-8.56-1.62-25.28,9.55-25.51,16.87Z"/>
  <path class="cls-1" d="M40.56,115.18c-7.83,2.08-25.04-9.31-25.44-16.73,6.47-1.91,25.36,9.28,25.44,16.73Z"/>
  <path class="cls-1" d="M150.61,115.72c0-7.88,18.59-18.87,25.7-17.29-.41,1.17-.68,2.36-1.24,3.41-1.81,3.41-4.69,5.93-7.9,7.8-3.8,2.22-7.91,3.95-11.99,5.64-1.35.55-3.02.31-4.57.44Z"/>
  <path class="cls-1" d="M.11,79.9c7.24-2.31,24.34,8.83,25.5,16.62-7.71,1.94-24.83-9.22-25.5-16.62Z"/>
  <path class="cls-1" d="M190.85,59.63c1.01,2.59-.18,4.71-1.16,6.65-3.63,7.2-9.3,12.45-16.47,16.08-.71.36-1.6.4-2.38.58-1.85-7.17,11.89-22.31,20.01-23.31Z"/>
  <path class="cls-1" d="M.32,59.66c7.15-.12,22.58,16.71,19.95,22.82-5.98,1.18-22.75-16.2-19.95-22.82Z"/>
  <path class="cls-1" d="M171.7,119.4c-5.04,6.92-24.91,9.88-30.24,4.66,4.7-6.46,23.29-9.42,30.24-4.66Z"/>
  <path class="cls-1" d="M49.94,124.3c-7.87,4.55-26.26,1.62-30.36-4.71,5.44-5.16,25.23-2.19,30.36,4.71Z"/>
  <path class="cls-1" d="M188.66,38.64c3.22,6.15-7.69,24.56-14.97,26.24-2.95-6.68,7.18-24.61,14.97-26.24Z"/>
  <path class="cls-1" d="M17.64,64.94C9.52,62.38-.11,45.37,2.66,38.75c6.3.71,18.33,19.3,14.98,26.19Z"/>
  <path class="cls-1" d="M164.12,69.73c4.53,7.82,1.56,25.48-4.86,30.94-1.7-.93-1.83-2.71-1.99-4.28-.8-8.22.31-16.12,4.38-23.44.59-1.06,1.48-1.95,2.46-3.23Z"/>
  <path class="cls-1" d="M137.68,122.38c-2.07-7.6,7.68-23.94,16.09-27.25.08,1.12.36,2.14.19,3.08-1.6,8.8-6.07,15.99-12.52,22.01-.97.89-2.33,1.35-3.76,2.15Z"/>
  <path class="cls-1" d="M53.37,121.85c-7.3-1.58-17.85-19.5-15.62-26.51,7.49,1.78,17.89,19.43,15.62,26.51Z"/>
  <path class="cls-1" d="M82.69,132.11c-8.09.89-23.81-9.84-25.11-17.46,1.26,0,2.54-.27,3.66.04,8.18,2.24,14.76,6.92,20.09,13.43,1.15,1.41,1.28,2.02,1.36,3.99Z"/>
  <path class="cls-1" d="M133.64,114.92c-1.63,7.68-18.51,18.96-25.3,16.91,1.6-7.68,18.63-19.05,25.3-16.91Z"/>
  <path class="cls-1" d="M15.16,23.17c6.59,4.52,9.56,22.38,4.79,27.96-6.24-4.14-9.49-22.51-4.79-27.96Z"/>
  <path class="cls-1" d="M175.81,22.68c4.79,6.12,1.9,23.44-4.86,28.65-.61-1.51-1.5-2.86-1.68-4.29-.99-8.01.68-15.5,4.88-22.4.4-.65.99-1.18,1.66-1.96Z"/>
  <path class="cls-1" d="M145.27,22.85c7.61-.14,20.4,12.35,19.85,18.94-1.48.58-2.85.08-4.18-.6-6.8-3.51-11.72-8.87-15.13-15.63-.36-.72-.34-1.65-.54-2.71Z"/>
  <path class="cls-1" d="M45.63,22.88c-.03,7.49-13.09,19.84-19.73,18.85-.03-6.78,12.26-18.65,19.73-18.85Z"/>
  <path class="cls-1" d="M164.04,5.74c5.33,5.15,6.31,20.81,1.73,27.53-5.69-2.69-6.66-22.47-1.73-27.53Z"/>
  <path class="cls-1" d="M27.35,5.66c4.71,7.05,3.73,22.76-1.61,27.62-4.78-4.62-3.81-22.85,1.61-27.62Z"/>
  <path class="cls-1" d="M34.75,21.65C33.26,14.43,42.69.41,49.06.14c1.62,6.3-7.36,19.98-14.31,21.51Z"/>
  <path class="cls-1" d="M142.27,0c2.69-.12,4.22,1.67,5.68,3.12,4.51,4.46,7.6,9.8,8.81,16.1.13.7-.16,1.48-.25,2.22-.83-.11-1.83.03-2.46-.38-6.74-4.55-10.33-11.17-12.23-18.89-.07-.39-.06-.79.03-1.18.11-.34.25-.67.43-.98Z"/>
  <path class="cls-1" d="M169.91,68.55c-6.66-2.71-13.21-17.49-10.65-24.09.76.42,1.6.68,2.16,1.24,5.76,5.79,8.76,12.77,8.87,20.95,0,.55-.21,1.11-.38,1.9Z"/>
  <path class="cls-1" d="M31.95,44.72c2.15,6.71-3.5,20.02-10.39,23.97-.3-1.01-.91-1.96-.8-2.83.84-6.85,2.93-13.25,7.46-18.62.96-1.17,1.97-2.46,3.73-2.52Z"/>
  <g>
    <path d="M82.88,35.62v-7.05l-2.31,4.59h-1.6l-2.33-4.59v7.05h-2.36v-12.1h2.33l3.16,6.54,3.14-6.54h2.33v12.1h-2.36Z"/>
    <path d="M96.59,31.08c-.01.32-.05.71-.12,1.18-.07.47-.19.87-.37,1.2s-.41.64-.71.94c-.88.88-1.97,1.33-3.26,1.33s-2.4-.44-3.28-1.33c-.29-.29-.53-.6-.7-.93-.17-.32-.29-.73-.36-1.22-.07-.49-.11-.88-.12-1.17s-.02-.8-.02-1.51,0-1.22.02-1.51c.01-.29.05-.69.12-1.17.07-.49.19-.89.36-1.22.17-.32.4-.63.7-.93.88-.88,1.98-1.33,3.28-1.33s2.38.44,3.26,1.33c.29.29.53.61.71.94s.3.73.37,1.2.11.86.12,1.18c.01.32.02.82.02,1.51s0,1.2-.02,1.51ZM94.12,27.22c-.08-.44-.24-.78-.48-1.05-.37-.43-.88-.65-1.51-.65s-1.16.22-1.53.65c-.24.26-.39.61-.47,1.04s-.11,1.22-.11,2.36.04,1.93.11,2.36.23.78.47,1.04c.38.43.88.65,1.53.65s1.14-.22,1.51-.65c.24-.26.4-.61.48-1.05.08-.44.12-1.22.12-2.35s-.04-1.92-.12-2.35Z"/>
    <path d="M105.57,34.75c-.84.65-1.92.98-3.22.98-.96,0-1.8-.12-2.5-.37s-1.34-.65-1.92-1.23l1.53-1.53c.68.68,1.65,1.02,2.92,1.02,1.43,0,2.14-.5,2.14-1.5,0-.44-.12-.78-.37-1.02-.23-.2-.58-.35-1.07-.42l-1.46-.2c-1.03-.15-1.81-.48-2.35-1-.58-.58-.87-1.37-.87-2.38,0-1.1.38-1.99,1.14-2.66s1.79-1.01,3.08-1.01c1.63,0,2.94.47,3.91,1.41l-1.5,1.48c-.58-.56-1.41-.83-2.48-.83-.6,0-1.06.14-1.38.43-.32.29-.48.65-.48,1.1,0,.35.12.64.36.87.27.25.65.41,1.12.48l1.43.2c1.02.15,1.79.46,2.31.94.62.59.93,1.44.93,2.57s-.42,2.04-1.27,2.69Z"/>
    <path d="M113.69,25.63v10h-2.36v-10h-3.16v-2.11h8.69v2.11h-3.16Z"/>
    <path d="M66.41,46.03v10h-2.36v-10h-3.16v-2.11h8.69v2.11h-3.16Z"/>
    <path d="M77.92,56.02l-2.36-4.83h-1.7v4.83h-2.36v-12.1h4.74c1.2,0,2.16.36,2.86,1.07s1.06,1.59,1.06,2.63c0,.8-.21,1.48-.63,2.02-.42.54-.95.93-1.58,1.16l2.7,5.22h-2.74ZM77.32,46.47c-.32-.29-.73-.44-1.24-.44h-2.23v3.2h2.23c.51,0,.92-.15,1.24-.44.32-.29.48-.68.48-1.16s-.16-.86-.48-1.16Z"/>
    <path d="M90.06,54.94c-.85.79-1.91,1.18-3.18,1.18s-2.33-.39-3.18-1.18c-.85-.79-1.27-1.81-1.27-3.07v-7.96h2.36v7.87c0,.69.19,1.23.56,1.63.37.4.88.59,1.53.59s1.16-.2,1.54-.59c.38-.4.57-.94.57-1.63v-7.87h2.35v7.96c0,1.26-.42,2.28-1.27,3.07Z"/>
    <path d="M100.52,55.15c-.84.65-1.92.98-3.22.98-.96,0-1.8-.12-2.5-.37-.7-.24-1.34-.65-1.92-1.23l1.53-1.53c.68.68,1.65,1.02,2.92,1.02,1.43,0,2.14-.5,2.14-1.5,0-.44-.12-.78-.38-1.02-.23-.2-.58-.35-1.07-.42l-1.46-.2c-1.03-.15-1.81-.48-2.35-1-.58-.58-.87-1.37-.87-2.38,0-1.1.38-1.99,1.14-2.66.76-.67,1.78-1.01,3.08-1.01,1.63,0,2.94.47,3.91,1.41l-1.5,1.48c-.58-.56-1.41-.83-2.48-.83-.6,0-1.06.14-1.38.43-.32.29-.48.65-.48,1.1,0,.35.12.64.36.87.27.25.65.41,1.12.48l1.43.2c1.02.15,1.79.46,2.31.94.62.59.93,1.44.93,2.57s-.42,2.04-1.27,2.69Z"/>
    <path d="M108.64,46.03v10h-2.36v-10h-3.16v-2.11h8.69v2.11h-3.16Z"/>
    <path d="M113.72,56.02v-12.1h7.97v2.11h-5.61v2.84h4.78v2.11h-4.78v2.94h5.61v2.11h-7.97Z"/>
    <path d="M132.79,50.51v.62c0,.09,0,.28-.02.57-.01.29-.03.49-.05.6s-.05.29-.08.53c-.03.24-.08.43-.14.57-.06.14-.14.31-.22.5-.08.19-.19.37-.31.52-.12.15-.25.3-.4.45-.77.77-1.84,1.16-3.2,1.16h-4.37v-12.1h4.37c1.36,0,2.42.39,3.2,1.16.15.15.28.3.4.45.12.15.22.32.31.51s.16.35.22.48c.06.14.11.32.14.55.03.23.06.4.08.51.02.11.04.3.05.59.01.28.02.47.02.55v1.78ZM130.34,47.82c-.06-.44-.2-.78-.42-1.05-.41-.5-1-.75-1.77-.75h-1.79v7.89h1.79c.77,0,1.36-.25,1.77-.75.22-.26.35-.62.42-1.08s.09-1.18.09-2.17-.03-1.66-.09-2.1Z"/>
    <path d="M71.3,75.5c-.68.61-1.58.92-2.69.92h-5.07v-12.1h4.86c1.17,0,2.08.31,2.75.92.66.61.99,1.44.99,2.48,0,.61-.16,1.14-.47,1.57-.31.44-.65.75-1.03.93,1.11.52,1.67,1.43,1.67,2.72,0,1.1-.34,1.96-1.02,2.57ZM69.38,66.81c-.27-.26-.66-.38-1.16-.38h-2.31v2.79h2.31c.5,0,.88-.13,1.16-.38s.41-.59.41-1.01-.14-.76-.41-1.01ZM69.55,71.76c-.27-.28-.66-.42-1.17-.42h-2.46v2.97h2.46c.51,0,.9-.14,1.17-.42s.41-.64.41-1.07-.14-.78-.41-1.06Z"/>
    <path d="M81.16,76.42l-2.36-4.83h-1.7v4.83h-2.36v-12.1h4.74c1.2,0,2.16.36,2.86,1.07.71.71,1.06,1.59,1.06,2.63,0,.8-.21,1.48-.63,2.02-.42.54-.95.93-1.58,1.16l2.7,5.22h-2.74ZM80.56,66.87c-.32-.29-.73-.44-1.24-.44h-2.23v3.2h2.23c.51,0,.92-.15,1.24-.44.32-.29.48-.68.48-1.16s-.16-.86-.48-1.16Z"/>
    <path d="M94.37,71.88c-.01.32-.05.71-.12,1.18-.07.47-.19.87-.37,1.2s-.41.64-.71.94c-.88.88-1.97,1.33-3.26,1.33s-2.4-.44-3.28-1.33c-.29-.29-.53-.6-.7-.93-.17-.32-.29-.73-.36-1.22-.07-.49-.11-.88-.12-1.17-.01-.29-.02-.8-.02-1.51s0-1.22.02-1.51c.01-.29.05-.69.12-1.17.07-.49.19-.89.36-1.22.17-.32.4-.63.7-.93.88-.88,1.98-1.33,3.28-1.33s2.38.44,3.26,1.33c.29.29.53.61.71.94s.3.73.37,1.2c.07.47.11.86.12,1.18.01.32.02.82.02,1.51s0,1.2-.02,1.51ZM91.9,68.02c-.08-.44-.24-.78-.48-1.05-.37-.43-.88-.65-1.51-.65s-1.16.22-1.53.65c-.24.26-.39.61-.47,1.04-.07.43-.11,1.22-.11,2.36s.04,1.93.11,2.36c.07.43.23.78.47,1.04.37.43.88.65,1.53.65s1.14-.22,1.51-.65c.24-.26.4-.61.48-1.05.08-.44.12-1.22.12-2.35s-.04-1.92-.12-2.35Z"/>
    <path d="M103.84,76.42l-3.11-5.51-1.56,1.87v3.64h-2.36v-12.1h2.36v5.27l4.27-5.27h2.87l-4.01,4.81,4.3,7.29h-2.75Z"/>
    <path d="M108.1,76.42v-12.1h7.97v2.11h-5.61v2.84h4.78v2.11h-4.78v2.94h5.61v2.11h-7.97Z"/>
    <path d="M124.81,76.42l-2.36-4.83h-1.7v4.83h-2.36v-12.1h4.74c1.2,0,2.16.36,2.87,1.07.71.71,1.06,1.59,1.06,2.63,0,.8-.21,1.48-.63,2.02-.42.54-.95.93-1.58,1.16l2.7,5.22h-2.74ZM124.22,66.87c-.32-.29-.73-.44-1.24-.44h-2.23v3.2h2.23c.51,0,.92-.15,1.24-.44.32-.29.48-.68.48-1.16s-.16-.86-.48-1.16Z"/>
    <path d="M79.63,96.82v-1.99l4.52-5.25c.42-.5.63-.99.63-1.46s-.13-.82-.38-1.1c-.25-.28-.61-.42-1.08-.42-.42,0-.77.12-1.05.37s-.42.64-.42,1.18h-2.21c0-1.08.35-1.94,1.05-2.58.7-.64,1.58-.96,2.64-.96s1.97.32,2.65.95,1.02,1.49,1.02,2.57c0,.54-.1,1-.29,1.38-.19.37-.53.84-1,1.39l-3.38,3.93h4.68v1.99h-7.36Z"/>
    <path d="M95.09,95.96c-.71.65-1.58.97-2.61.97s-1.9-.32-2.62-.97c-.71-.65-1.07-1.52-1.07-2.63v-5.1c0-1.11.36-1.99,1.07-2.63s1.59-.97,2.62-.97,1.9.32,2.61.97c.71.65,1.06,1.52,1.06,2.63v5.1c0,1.11-.35,1.99-1.06,2.63ZM93.94,88.26c0-.51-.13-.91-.4-1.21-.27-.29-.62-.44-1.06-.44s-.8.15-1.07.45-.41.7-.41,1.2v5.05c0,.5.14.9.41,1.19.27.29.63.44,1.07.44s.8-.15,1.06-.44c.27-.29.4-.69.4-1.19v-5.05Z"/>
    <path d="M98.09,96.82v-1.99l4.52-5.25c.42-.5.63-.99.63-1.46s-.13-.82-.38-1.1c-.25-.28-.62-.42-1.08-.42-.42,0-.77.12-1.05.37s-.43.64-.43,1.18h-2.21c0-1.08.35-1.94,1.04-2.58.7-.64,1.58-.96,2.64-.96s1.97.32,2.65.95,1.02,1.49,1.02,2.57c0,.54-.1,1-.29,1.38-.19.37-.53.84-1,1.39l-3.38,3.93h4.67v1.99h-7.36Z"/>
    <path d="M114.5,94.58c-.15.49-.43.94-.85,1.36-.66.66-1.55.99-2.67.99s-2.06-.32-2.7-.97c-.58-.58-.91-1.42-.99-2.52h2.21c.12,1,.62,1.5,1.48,1.5.44,0,.79-.13,1.05-.39.32-.32.48-.92.48-1.8,0-1.45-.49-2.18-1.48-2.18-.76,0-1.25.33-1.46.99h-2.02v-6.83h6.9v1.99h-4.9v2.6c.43-.41,1.04-.61,1.82-.61.96,0,1.72.27,2.26.82.72.73,1.09,1.8,1.09,3.23,0,.74-.07,1.35-.22,1.84Z"/>
  </g>
  <g>
    <path d="M84.52,182.16c-1.3,0-2.43-.48-3.29-1.34-1.23-1.23-1.21-2.62-1.21-5.04s-.02-3.8,1.21-5.04c.86-.86,1.99-1.34,3.29-1.34,2.31,0,4.03,1.36,4.47,3.86h-1.94c-.3-1.27-1.14-2.15-2.54-2.15-.74,0-1.41.28-1.85.76-.62.67-.76,1.39-.76,3.91s.14,3.24.76,3.91c.44.48,1.11.76,1.85.76,1.39,0,2.25-.88,2.55-2.15h1.92c-.42,2.5-2.2,3.86-4.47,3.86Z"/>
    <path d="M99.23,182.05l-5.79-8.82v8.82h-1.9v-12.54h1.74l5.79,8.8v-8.8h1.9v12.54h-1.74Z"/>
    <path d="M111.95,182.05l-5.79-8.82v8.82h-1.9v-12.54h1.74l5.79,8.8v-8.8h1.9v12.54h-1.74Z"/>
  </g>
</svg>